<svg xmlns="http://www.w3.org/2000/svg" viewBox="0 0 300 420">
  <defs>
    <path id="heart" d="M0 12C-26-8-22-34 0-20C22-34 26-8 0 12Z"/>
    <g id="nested">
      <use href="#heart" fill="none" stroke="white" stroke-width="2.8" opacity=".95"/>
      <use href="#heart" fill="none" stroke="white" stroke-width="2.2" opacity=".82" transform="scale(.70)"/>
      <use href="#heart" fill="none" stroke="white" stroke-width="1.9" opacity=".72" transform="scale(.40)"/>
    </g>
    <g id="spark" stroke="white" stroke-linecap="round">
      <path d="M0-6V6M-6 0H6" stroke-width="1.5" opacity=".8"/>
      <path d="M-4-4L4 4M4-4L-4 4" stroke-width="1" opacity=".55"/>
    </g>
  </defs>

  <g fill="none">
    <use href="#nested" transform="translate(38 40) scale(.82)"/>
    <use href="#nested" transform="translate(112 42) scale(.72)"/>
    <use href="#nested" transform="translate(188 38) scale(.86)"/>
    <use href="#nested" transform="translate(263 44) scale(.68)"/>

    <use href="#nested" transform="translate(74 118) scale(.76)"/>
    <use href="#nested" transform="translate(151 112) scale(.90)"/>
    <use href="#nested" transform="translate(230 120) scale(.72)"/>

    <use href="#nested" transform="translate(34 196) scale(.70)"/>
    <use href="#nested" transform="translate(111 194) scale(.86)"/>
    <use href="#nested" transform="translate(188 198) scale(.74)"/>
    <use href="#nested" transform="translate(264 192) scale(.82)"/>

    <use href="#nested" transform="translate(72 276) scale(.84)"/>
    <use href="#nested" transform="translate(150 274) scale(.72)"/>
    <use href="#nested" transform="translate(230 280) scale(.88)"/>

    <use href="#nested" transform="translate(36 356) scale(.76)"/>
    <use href="#nested" transform="translate(112 354) scale(.88)"/>
    <use href="#nested" transform="translate(188 360) scale(.70)"/>
    <use href="#nested" transform="translate(264 352) scale(.82)"/>
  </g>

  <g opacity=".7">
    <use href="#spark" transform="translate(76 78) scale(.7)"/>
    <use href="#spark" transform="translate(150 76) scale(.5)"/>
    <use href="#spark" transform="translate(226 80) scale(.65)"/>
    <use href="#spark" transform="translate(34 156) scale(.55)"/>
    <use href="#spark" transform="translate(112 156) scale(.7)"/>
    <use href="#spark" transform="translate(189 156) scale(.5)"/>
    <use href="#spark" transform="translate(264 158) scale(.7)"/>
    <use href="#spark" transform="translate(74 236) scale(.55)"/>
    <use href="#spark" transform="translate(150 238) scale(.7)"/>
    <use href="#spark" transform="translate(228 236) scale(.55)"/>
    <use href="#spark" transform="translate(36 316) scale(.7)"/>
    <use href="#spark" transform="translate(112 318) scale(.52)"/>
    <use href="#spark" transform="translate(188 316) scale(.68)"/>
    <use href="#spark" transform="translate(264 318) scale(.52)"/>
  </g>

  <g fill="white" opacity=".58">
    <circle cx="20" cy="86" r="1.5"/><circle cx="94" cy="82" r="1.2"/><circle cx="170" cy="86" r="1.4"/><circle cx="246" cy="84" r="1.2"/>
    <circle cx="52" cy="164" r="1.2"/><circle cx="132" cy="166" r="1.5"/><circle cx="208" cy="164" r="1.2"/><circle cx="284" cy="168" r="1.4"/>
    <circle cx="20" cy="244" r="1.4"/><circle cx="96" cy="242" r="1.2"/><circle cx="170" cy="246" r="1.5"/><circle cx="248" cy="244" r="1.2"/>
    <circle cx="54" cy="324" r="1.3"/><circle cx="132" cy="322" r="1.5"/><circle cx="210" cy="326" r="1.2"/><circle cx="286" cy="324" r="1.4"/>
  </g>
</svg>
