<svg xmlns="http://www.w3.org/2000/svg" viewBox="0 0 300 420"><path fill="white" opacity="0.85" transform="translate(253.5 388.1) rotate(12.4) scale(0.88)" d="M0 5 C-19 -6 -11 -20 0 -11 C11 -22 20 -5 0 5Z"/><path fill="white" opacity="0.85" transform="translate(227.5 30.1) rotate(-5.5) scale(0.51)" d="M0 5 C-19 -6 -11 -20 0 -11 C11 -22 20 -5 0 5Z"/><path fill="white" opacity="0.55" transform="translate(261.2 380.2) rotate(17.8) scale(0.42)" d="M0 5 C-19 -6 -11 -20 0 -11 C11 -22 20 -5 0 5Z"/><path fill="white" opacity="0.69" transform="translate(194.3 327.8) rotate(-23.2) scale(0.90)" d="M0 5 C-19 -6 -11 -20 0 -11 C11 -22 20 -5 0 5Z"/><path fill="white" opacity="0.74" transform="translate(267.7 132.9) rotate(-19.8) scale(0.94)" d="M0 5 C-19 -6 -11 -20 0 -11 C11 -22 20 -5 0 5Z"/><path fill="white" opacity="0.49" transform="translate(252.1 130.8) rotate(0.5) scale(0.46)" d="M0 5 C-19 -6 -11 -20 0 -11 C11 -22 20 -5 0 5Z"/><path fill="white" opacity="0.88" transform="translate(262.9 271.1) rotate(21.6) scale(1.02)" d="M0 5 C-19 -6 -11 -20 0 -11 C11 -22 20 -5 0 5Z"/><path fill="white" opacity="0.53" transform="translate(209.0 370.5) rotate(-13.4) scale(0.49)" d="M0 5 C-19 -6 -11 -20 0 -11 C11 -22 20 -5 0 5Z"/><path fill="white" opacity="0.49" transform="translate(46.9 9.6) rotate(12.6) scale(1.01)" d="M0 5 C-19 -6 -11 -20 0 -11 C11 -22 20 -5 0 5Z"/><path fill="white" opacity="0.54" transform="translate(102.5 207.3) rotate(-10.7) scale(0.95)" d="M0 5 C-19 -6 -11 -20 0 -11 C11 -22 20 -5 0 5Z"/><path fill="white" opacity="0.95" transform="translate(140.9 217.1) rotate(-1.6) scale(0.77)" d="M0 5 C-19 -6 -11 -20 0 -11 C11 -22 20 -5 0 5Z"/><path fill="white" opacity="0.73" transform="translate(85.8 251.3) rotate(-35.0) scale(0.80)" d="M0 5 C-19 -6 -11 -20 0 -11 C11 -22 20 -5 0 5Z"/><path fill="white" opacity="0.98" transform="translate(172.0 213.4) rotate(19.8) scale(0.61)" d="M0 5 C-19 -6 -11 -20 0 -11 C11 -22 20 -5 0 5Z"/><path fill="white" opacity="0.84" transform="translate(144.6 386.2) rotate(-19.7) scale(0.68)" d="M0 5 C-19 -6 -11 -20 0 -11 C11 -22 20 -5 0 5Z"/><path fill="white" opacity="0.93" transform="translate(138.7 145.1) rotate(-16.4) scale(0.95)" d="M0 5 C-19 -6 -11 -20 0 -11 C11 -22 20 -5 0 5Z"/><path fill="white" opacity="0.50" transform="translate(286.5 103.3) rotate(12.4) scale(0.82)" d="M0 5 C-19 -6 -11 -20 0 -11 C11 -22 20 -5 0 5Z"/><path fill="white" opacity="0.64" transform="translate(134.4 310.4) rotate(-27.8) scale(0.60)" d="M0 5 C-19 -6 -11 -20 0 -11 C11 -22 20 -5 0 5Z"/><path fill="white" opacity="0.78" transform="translate(119.6 119.3) rotate(-9.9) scale(0.59)" d="M0 5 C-19 -6 -11 -20 0 -11 C11 -22 20 -5 0 5Z"/><path fill="white" opacity="0.42" transform="translate(186.1 247.7) rotate(-0.5) scale(0.80)" d="M0 5 C-19 -6 -11 -20 0 -11 C11 -22 20 -5 0 5Z"/><path fill="white" opacity="0.98" transform="translate(114.1 374.8) rotate(33.1) scale(0.43)" d="M0 5 C-19 -6 -11 -20 0 -11 C11 -22 20 -5 0 5Z"/><path fill="white" opacity="0.58" transform="translate(136.2 88.7) rotate(-9.1) scale(0.58)" d="M0 5 C-19 -6 -11 -20 0 -11 C11 -22 20 -5 0 5Z"/><path fill="white" opacity="0.54" transform="translate(11.8 117.3) rotate(32.1) scale(0.97)" d="M0 5 C-19 -6 -11 -20 0 -11 C11 -22 20 -5 0 5Z"/><path fill="white" opacity="0.52" transform="translate(172.1 61.7) rotate(7.5) scale(0.63)" d="M0 5 C-19 -6 -11 -20 0 -11 C11 -22 20 -5 0 5Z"/><path fill="white" opacity="0.37" transform="translate(127.6 415.7) rotate(34.4) scale(0.66)" d="M0 5 C-19 -6 -11 -20 0 -11 C11 -22 20 -5 0 5Z"/><path fill="white" opacity="0.68" transform="translate(285.1 14.7) rotate(-12.7) scale(0.37)" d="M0 5 C-19 -6 -11 -20 0 -11 C11 -22 20 -5 0 5Z"/><path fill="white" opacity="0.93" transform="translate(259.7 319.4) rotate(-19.9) scale(0.86)" d="M0 5 C-19 -6 -11 -20 0 -11 C11 -22 20 -5 0 5Z"/><path fill="white" opacity="0.94" transform="translate(10.7 93.5) rotate(-29.8) scale(0.64)" d="M0 5 C-19 -6 -11 -20 0 -11 C11 -22 20 -5 0 5Z"/><path fill="white" opacity="0.70" transform="translate(299.8 240.2) rotate(10.5) scale(0.56)" d="M0 5 C-19 -6 -11 -20 0 -11 C11 -22 20 -5 0 5Z"/><path fill="white" opacity="0.55" transform="translate(182.1 36.7) rotate(-27.7) scale(0.73)" d="M0 5 C-19 -6 -11 -20 0 -11 C11 -22 20 -5 0 5Z"/><path fill="white" opacity="0.49" transform="translate(111.7 199.2) rotate(-2.7) scale(0.48)" d="M0 5 C-19 -6 -11 -20 0 -11 C11 -22 20 -5 0 5Z"/><path fill="white" opacity="0.48" transform="translate(100.8 110.2) rotate(22.9) scale(1.02)" d="M0 5 C-19 -6 -11 -20 0 -11 C11 -22 20 -5 0 5Z"/><path fill="white" opacity="0.80" transform="translate(220.0 6.4) rotate(-29.6) scale(0.57)" d="M0 5 C-19 -6 -11 -20 0 -11 C11 -22 20 -5 0 5Z"/><path fill="white" opacity="0.65" transform="translate(103.4 94.4) rotate(-15.4) scale(0.35)" d="M0 5 C-19 -6 -11 -20 0 -11 C11 -22 20 -5 0 5Z"/><path fill="white" opacity="0.95" transform="translate(125.2 147.0) rotate(-11.9) scale(0.37)" d="M0 5 C-19 -6 -11 -20 0 -11 C11 -22 20 -5 0 5Z"/><path fill="white" opacity="0.40" transform="translate(80.5 397.1) rotate(-16.0) scale(0.46)" d="M0 5 C-19 -6 -11 -20 0 -11 C11 -22 20 -5 0 5Z"/><path fill="white" opacity="0.88" transform="translate(139.6 150.9) rotate(-29.7) scale(0.63)" d="M0 5 C-19 -6 -11 -20 0 -11 C11 -22 20 -5 0 5Z"/><path fill="white" opacity="0.96" transform="translate(176.1 234.1) rotate(-11.0) scale(0.51)" d="M0 5 C-19 -6 -11 -20 0 -11 C11 -22 20 -5 0 5Z"/><path fill="white" opacity="0.80" transform="translate(108.8 148.6) rotate(-33.9) scale(0.77)" d="M0 5 C-19 -6 -11 -20 0 -11 C11 -22 20 -5 0 5Z"/><path fill="white" opacity="0.79" transform="translate(73.8 101.5) rotate(25.3) scale(0.91)" d="M0 5 C-19 -6 -11 -20 0 -11 C11 -22 20 -5 0 5Z"/><path fill="white" opacity="0.47" transform="translate(162.0 81.4) rotate(10.4) scale(0.46)" d="M0 5 C-19 -6 -11 -20 0 -11 C11 -22 20 -5 0 5Z"/><path fill="white" opacity="0.63" transform="translate(247.5 331.1) rotate(23.1) scale(0.37)" d="M0 5 C-19 -6 -11 -20 0 -11 C11 -22 20 -5 0 5Z"/><path fill="white" opacity="0.49" transform="translate(9.3 379.3) rotate(5.0) scale(0.49)" d="M0 5 C-19 -6 -11 -20 0 -11 C11 -22 20 -5 0 5Z"/><path fill="white" opacity="0.40" transform="translate(232.6 223.0) rotate(-18.7) scale(0.90)" d="M0 5 C-19 -6 -11 -20 0 -11 C11 -22 20 -5 0 5Z"/><path fill="white" opacity="0.77" transform="translate(275.8 43.4) rotate(5.9) scale(0.88)" d="M0 5 C-19 -6 -11 -20 0 -11 C11 -22 20 -5 0 5Z"/><path fill="white" opacity="0.96" transform="translate(147.8 257.4) rotate(34.5) scale(0.71)" d="M0 5 C-19 -6 -11 -20 0 -11 C11 -22 20 -5 0 5Z"/><path fill="white" opacity="0.41" transform="translate(142.0 355.7) rotate(-15.4) scale(0.95)" d="M0 5 C-19 -6 -11 -20 0 -11 C11 -22 20 -5 0 5Z"/><path fill="white" opacity="0.61" transform="translate(70.8 329.2) rotate(27.8) scale(0.78)" d="M0 5 C-19 -6 -11 -20 0 -11 C11 -22 20 -5 0 5Z"/><path fill="white" opacity="0.41" transform="translate(31.8 285.3) rotate(-27.2) scale(0.37)" d="M0 5 C-19 -6 -11 -20 0 -11 C11 -22 20 -5 0 5Z"/></svg>